<svg id="artwork" xmlns="http://www.w3.org/2000/svg" viewBox="0 0 1331.55 859.64"><defs><style>.cls-1{fill:#2147ed;}</style></defs><path class="cls-1" d="M64.85,339.24l-.84-4.7C220.72,245,390.1,191.09,571.08,177.5q45.45-3.41,91.11-3.4c152.87,0,307.12,28.44,461.12,82.76l.83,4.28C1057.61,242.77,946.3,232.52,812,232.52c-71.24,0-148.94,2.88-229.87,9-230,17.25-425.83,55.93-517.3,97.75" transform="translate(-42.89 -66.26)"/><path class="cls-1" d="M1364.4,261.77c-78.83-42.76-227.82-90.64-398.22-124.52C838.82,112,723.35,99.37,640.09,99.37c-29.11,0-54.29,1.55-74.66,4.64V99A847.74,847.74,0,0,1,798.05,66.26,865.87,865.87,0,0,1,966.49,83c136.64,27.08,269.73,86.26,397.91,173.45v5.33" transform="translate(-42.89 -66.26)"/><path class="cls-1" d="M43.41,456.86l-.52-6.06c205-98.07,422.17-150.55,649.67-151.5h6.87c227,0,452.86,51.28,674.49,148.16l.51,5.44c-121.78-43.22-371-72.7-657-72.7q-8.91,0-17.84,0c-288.88,1.25-537.49,32.41-656.16,76.63" transform="translate(-42.89 -66.26)"/><path d="M241,632.3l-1,1.3c-4.6,5.9-9.6,10.3-14.9,12.9a35.66,35.66,0,0,1-16.3,4,46.56,46.56,0,0,1-19.7-4A45.67,45.67,0,0,1,174,635.6a49.06,49.06,0,0,1-9.8-16.4,61.1,61.1,0,0,1-3.5-20.9,55.53,55.53,0,0,1,3.5-19.7,47.78,47.78,0,0,1,9.8-15.9A46.58,46.58,0,0,1,189.1,552a48.11,48.11,0,0,1,19.7-3.9,38.42,38.42,0,0,1,14.4,2.8c4.7,1.8,9.7,5.5,14.8,11l1.1,1.1L262,546.2l-1.2-1.4c-7.4-8.5-15.5-14.6-24.1-18.2a72,72,0,0,0-28-5.4,86.5,86.5,0,0,0-31.5,5.6,71.36,71.36,0,0,0-24.8,15.9,72.78,72.78,0,0,0-16.3,24.9,86,86,0,0,0-5.9,32.3,82.35,82.35,0,0,0,5.9,31.6A73,73,0,0,0,152.4,656a71.65,71.65,0,0,0,24.8,15.8,86.5,86.5,0,0,0,31.5,5.6,76.11,76.11,0,0,0,30.8-6.3,59.36,59.36,0,0,0,24.7-20.3l1-1.4Z" transform="translate(-42.89 -66.26)"/><path d="M403.7,525.1H379L314.3,673.7H347l13.1-33.2h60.6l13.5,33.2h33.3Zm6.8,89.8H370.4l20.2-52.5Z" transform="translate(-42.89 -66.26)"/><path d="M612.1,609.2c10-1.9,17.9-6.3,23.5-13.1,6-7.4,9.1-16.7,9.1-27.5,0-8.5-1.6-15.6-4.7-21.2a36,36,0,0,0-12.7-13.3,53.44,53.44,0,0,0-17.9-6.9,106.35,106.35,0,0,0-20.5-2H536.7V673.8H566V612.3h16l33.1,60.6.5.9h35.3Zm-46.2-58.5h20.6a83.46,83.46,0,0,1,9.9.6,31.32,31.32,0,0,1,9,2.4,15.26,15.26,0,0,1,6.3,5.2q2.4,3.45,2.4,9.3c0,4.4-.9,7.8-2.5,10.2a15.78,15.78,0,0,1-6.8,5.4,32.17,32.17,0,0,1-9.6,2.3c-3.6.3-7.3.5-10.9.5H565.9Z" transform="translate(-42.89 -66.26)"/><path d="M842.4,617a35.41,35.41,0,0,0-6.8-11.2,36.54,36.54,0,0,0-10.5-8,39.44,39.44,0,0,0-7.7-2.9,39.27,39.27,0,0,0,13.9-10.1c4.9-5.6,7.4-12.8,7.4-21.4a36.45,36.45,0,0,0-4.1-17.7,34.15,34.15,0,0,0-10.7-11.9,43.25,43.25,0,0,0-14.8-6.6,71.13,71.13,0,0,0-16.6-2H734.2V673.8h54a100.44,100.44,0,0,0,20.5-2.1,55.34,55.34,0,0,0,18.2-7.1,39.4,39.4,0,0,0,13-13.3c3.3-5.5,5-12.5,5-20.7A38.2,38.2,0,0,0,842.4,617Zm-79-7.2h23.1c10.1,0,17.7,1.4,22.4,4.3,4.5,2.7,6.6,7.4,6.6,14.5,0,4.4-.9,7.9-2.7,10.4a19.24,19.24,0,0,1-7.1,5.9,30.14,30.14,0,0,1-9.8,2.7,97.56,97.56,0,0,1-10.4.6H763.4Zm40.2-30.3c-4,3.1-10.1,4.7-18.3,4.7H763.5V550.8H783c9.4,0,16.3,1.4,20.4,4.3s5.9,6.9,5.9,12.6A13.76,13.76,0,0,1,803.6,579.5Z" transform="translate(-42.89 -66.26)"/><path d="M1065.6,567a73.06,73.06,0,0,0-16.4-24.8,71.74,71.74,0,0,0-25-15.7,88.1,88.1,0,0,0-31.8-5.1,86.5,86.5,0,0,0-31.5,5.6,71.36,71.36,0,0,0-24.8,15.9,72.78,72.78,0,0,0-16.3,24.9,86,86,0,0,0-5.9,32.3,82.35,82.35,0,0,0,5.9,31.6,73,73,0,0,0,16.3,24.5A71.65,71.65,0,0,0,960.9,672a89.27,89.27,0,0,0,63.3-.4,74.17,74.17,0,0,0,25-16.1,72.22,72.22,0,0,0,16.4-24.6,82.72,82.72,0,0,0,5.9-31.6A85.62,85.62,0,0,0,1065.6,567Zm-72.9,83.6a46.56,46.56,0,0,1-19.7-4,45.67,45.67,0,0,1-15.1-10.9,49.06,49.06,0,0,1-9.8-16.4,61.1,61.1,0,0,1-3.5-20.9,55.53,55.53,0,0,1,3.5-19.7,47.78,47.78,0,0,1,9.8-15.9A46.58,46.58,0,0,1,973,552.1a48.11,48.11,0,0,1,19.7-3.9,48.93,48.93,0,0,1,19.8,3.9,44.55,44.55,0,0,1,15.2,10.7,48.81,48.81,0,0,1,9.8,15.9,55.53,55.53,0,0,1,3.5,19.7,61.1,61.1,0,0,1-3.5,20.9,48.09,48.09,0,0,1-9.8,16.4,46.48,46.48,0,0,1-15.2,10.9A47.35,47.35,0,0,1,992.7,650.6Z" transform="translate(-42.89 -66.26)"/><polygon points="1204.71 458.84 1204.71 563.24 1136.71 458.84 1099.71 458.84 1099.71 607.54 1129.01 607.54 1129.01 499.74 1198.01 606.74 1198.51 607.54 1234.01 607.54 1234.01 458.84 1204.71 458.84"/><polygon points="233.56 707.24 233.56 734.14 278.06 734.14 278.06 855.94 307.36 855.94 307.36 734.14 351.86 734.14 351.86 707.24 233.56 707.24"/><path d="M542.35,857.6c10-1.9,17.9-6.3,23.5-13.1,6-7.4,9.1-16.7,9.1-27.5,0-8.5-1.6-15.6-4.7-21.2a36,36,0,0,0-12.7-13.3,53.44,53.44,0,0,0-17.9-6.9,106.35,106.35,0,0,0-20.5-2H467V922.2h29.2V860.7h16.1l33.1,60.6.5.9h35.3Zm-46.2-58.5h20.6a83.46,83.46,0,0,1,9.9.6,31.32,31.32,0,0,1,9,2.4,15.26,15.26,0,0,1,6.3,5.2q2.4,3.45,2.4,9.3c0,4.4-.9,7.8-2.5,10.2a15.78,15.78,0,0,1-6.8,5.4,32.17,32.17,0,0,1-9.6,2.3c-3.6.3-7.3.5-10.9.5h-18.4Z" transform="translate(-42.89 -66.26)"/><path d="M748.25,773.5v92.8a37.55,37.55,0,0,1-1.6,10.7,30.56,30.56,0,0,1-5.1,10.2,27.78,27.78,0,0,1-9.5,7.6q-5.85,3-14.7,3t-14.7-3a27.78,27.78,0,0,1-9.5-7.6,28.79,28.79,0,0,1-5.1-10.2,41.44,41.44,0,0,1-1.6-10.7V773.5h-29.3v93.6a63,63,0,0,0,4.5,24.3,52.66,52.66,0,0,0,12.7,18.5,55.59,55.59,0,0,0,19.1,11.7,71.13,71.13,0,0,0,47.6,0,55.74,55.74,0,0,0,19-11.7,56.46,56.46,0,0,0,12.7-18.5,61.36,61.36,0,0,0,4.6-24.4V773.4h-29.1Z" transform="translate(-42.89 -66.26)"/><path d="M899.05,925.9a79.56,79.56,0,0,1-26.6-4.6,52.38,52.38,0,0,1-22.3-15.7l-1-1.2,22.1-21.5,1.1,1.8a30.93,30.93,0,0,0,11.8,10.6,32.94,32.94,0,0,0,24.1,2.6,25.67,25.67,0,0,0,7.7-3.5,17.3,17.3,0,0,0,5.4-5.7,15.33,15.33,0,0,0,2-7.8c0-4.8-1.5-8.4-4.5-11a46,46,0,0,0-12.2-7c-5-2-10.5-3.8-16.5-5.6a70.3,70.3,0,0,1-17-7.5,42.69,42.69,0,0,1-13.3-12.8q-5.4-8.1-5.4-21.6c0-7.8,1.6-14.6,4.8-20.3a44.09,44.09,0,0,1,12.6-14.2,56.78,56.78,0,0,1,17.7-8.4,75.46,75.46,0,0,1,42.9.8,53.26,53.26,0,0,1,20,11.9l1.3,1.2-21.5,22.7-1.2-1.8a22,22,0,0,0-10.2-8.1,37.22,37.22,0,0,0-22.1-1.7,22.12,22.12,0,0,0-7,3,14.71,14.71,0,0,0-4.9,5.3,15.26,15.26,0,0,0-1.8,7.6c0,4.4,1.5,7.6,4.4,9.9a47.31,47.31,0,0,0,12.3,6.5c5,1.9,10.5,3.7,16.5,5.5a68.85,68.85,0,0,1,17,7.6,43.07,43.07,0,0,1,13.2,13c3.6,5.5,5.4,12.8,5.4,21.7a47.57,47.57,0,0,1-4.5,21.2,42.47,42.47,0,0,1-12.1,15,53.55,53.55,0,0,1-17.5,8.9A64.53,64.53,0,0,1,899.05,925.9Z" transform="translate(-42.89 -66.26)"/><path d="M1096.35,922.2h-29.3V800.4h-44.5V773.6h118.3v26.8h-44.5Z" transform="translate(-42.89 -66.26)"/></svg>