<svg xmlns="http://www.w3.org/2000/svg" viewBox="0 0 317.96 58.3"><g id="Layer_2" data-name="Layer 2"><g id="Layer_1-2" data-name="Layer 1"><path d="M138.25,24.92h8.15a15.74,15.74,0,0,0,3.18-.31,8.69,8.69,0,0,0,2.74-1.06,5.73,5.73,0,0,0,2-2,6.51,6.51,0,0,0,.74-3.25,5.52,5.52,0,0,0-1-3.41,6.51,6.51,0,0,0-2.51-2,10.63,10.63,0,0,0-3.4-.9,35.12,35.12,0,0,0-3.61-.19h-6.27ZM126,1.41h20.61a40.91,40.91,0,0,1,8.15.78,18.7,18.7,0,0,1,6.7,2.71A13.67,13.67,0,0,1,166,10.07a17.63,17.63,0,0,1,1.69,8.19,19,19,0,0,1-1.57,8.15,13.46,13.46,0,0,1-4.31,5.25,17.47,17.47,0,0,1-6.5,2.78,38.09,38.09,0,0,1-8.15.82h-8.94V56.89H126Z" style="fill:#001e62"/><path d="M190.38,17.55l-6.74,17.24H197.2Zm-4.7-16.14h10.11l24.14,55.48h-13.8l-4.78-11.75H179.8l-4.62,11.75H161.7Z" style="fill:#001e62"/><path d="M259.59,15.83a11.94,11.94,0,0,0-4.42-3.37,14.85,14.85,0,0,0-6.08-1.18,15.28,15.28,0,0,0-11.48,5.06A17.47,17.47,0,0,0,234.24,22,20.41,20.41,0,0,0,233,29.15a20.36,20.36,0,0,0,1.21,7.17A17.76,17.76,0,0,0,237.57,42a15,15,0,0,0,5,3.73A14.38,14.38,0,0,0,248.7,47a13.71,13.71,0,0,0,6.66-1.57,13.14,13.14,0,0,0,4.78-4.39l10.19,7.6A21.19,21.19,0,0,1,261.4,56a27.64,27.64,0,0,1-11.13,2.35,34.1,34.1,0,0,1-12-2,27.28,27.28,0,0,1-9.48-5.83,26.52,26.52,0,0,1-6.23-9.21,31.31,31.31,0,0,1-2.24-12.07,31.35,31.35,0,0,1,2.24-12.07,26.38,26.38,0,0,1,6.23-9.2A27.31,27.31,0,0,1,238.28,2a34.1,34.1,0,0,1,12-2,29.1,29.1,0,0,1,4.9.43,26.42,26.42,0,0,1,5,1.37,22,22,0,0,1,4.74,2.51A18.74,18.74,0,0,1,269,8.15Z" style="fill:#001e62"/><polygon points="289.9 12.22 274.07 12.22 274.07 1.41 317.96 1.41 317.96 12.22 302.13 12.22 302.13 56.89 289.9 56.89 289.9 12.22" style="fill:#001e62"/><polygon points="72.34 41.02 72.34 56.89 86.39 56.89 72.34 41.02" style="fill:#001e62"/><polygon points="71.99 14.86 71.99 1.41 84.4 1.41 71.99 14.86" style="fill:#001e62"/><polygon points="86.29 27.24 86.31 27.25 86.31 27.22 86.29 27.24" style="fill:#f59c00"/><polygon points="108.1 4.35 93.38 19.8 108.1 19.74 108.1 4.35" style="fill:#001e62"/><polygon points="108.1 51.52 108.1 34.7 93.05 34.77 108.1 51.52" style="fill:#001e62"/><polygon points="108.1 31.07 108.1 23.38 89.9 23.45 86.31 27.22 86.31 27.25 89.8 31.14 108.1 31.07" style="fill:#dc4234"/><path d="M46.78,35.5a26.59,26.59,0,0,1-1.49,9.09,20,20,0,0,1-4.42,7.21,20.32,20.32,0,0,1-7.33,4.78A27.54,27.54,0,0,1,23.43,58.3a27.75,27.75,0,0,1-10.19-1.72A20.28,20.28,0,0,1,5.92,51.8a20,20,0,0,1-4.43-7.21A26.83,26.83,0,0,1,0,35.5V1.41H12.22V35a13.48,13.48,0,0,0,.83,4.78,11.5,11.5,0,0,0,2.31,3.8,10.44,10.44,0,0,0,3.57,2.51,11.16,11.16,0,0,0,4.5.9,11,11,0,0,0,4.47-.9,10.54,10.54,0,0,0,3.52-2.51,11.36,11.36,0,0,0,2.32-3.8A13.71,13.71,0,0,0,34.56,35V1.41H46.78Z" style="fill:#dc4234"/><polygon points="68.45 24.45 90 1.41 105.99 1.41 81.3 27.19 108.1 56.89 91.02 56.89 68.45 30.56 68.45 24.45" style="fill:#dc4234"/><polygon points="56.36 1.41 68.59 1.41 68.59 24.45 68.59 30.56 68.59 56.89 56.36 56.89 56.36 1.41" style="fill:#dc4234"/></g></g></svg>